HIERARCHY
ROOT hip
{
  OFFSET 0 0 0
  CHANNELS 6 Xposition Yposition Zposition Zrotation Yrotation Xrotation
  JOINT abdomen
  {
    OFFSET 0 20.6881 -0.73152
    CHANNELS 3 Zrotation Xrotation Yrotation
    JOINT chest
    {
      OFFSET 0 11.7043 -0.48768
      CHANNELS 3 Zrotation Xrotation Yrotation
      JOINT neck
      {
        OFFSET 0 22.1894 -2.19456
        CHANNELS 3 Zrotation Xrotation Yrotation
        JOINT head
        {
          OFFSET -0.24384 7.07133 1.2192
          CHANNELS 3 Zrotation Xrotation Yrotation
          JOINT leftEye
          {
            OFFSET 4.14528 8.04674 8.04672
            CHANNELS 3 Zrotation Xrotation Yrotation
            End Site
            {
              OFFSET 1 0 0
            }
          }
          JOINT rightEye
          {
            OFFSET -3.6576 8.04674 8.04672
            CHANNELS 3 Zrotation Xrotation Yrotation
            End Site
            {
              OFFSET 1 0 0
            }
          }
        }
      }
      JOINT rCollar
      {
        OFFSET -2.68224 19.2634 -4.8768
        CHANNELS 3 Zrotation Xrotation Yrotation
        JOINT rShldr
        {
          OFFSET -8.77824 -1.95073 1.46304
          CHANNELS 3 Zrotation Xrotation Yrotation
          JOINT rForeArm
          {
            OFFSET -28.1742 -1.7115 0.48768
            CHANNELS 3 Zrotation Xrotation Yrotation
            JOINT rHand
            {
              OFFSET -22.5879 0.773209 7.07136
              CHANNELS 3 Zrotation Xrotation Yrotation
              JOINT rThumb1
              {
                OFFSET -1.2192 -0.487915 3.41376
                CHANNELS 3 Zrotation Xrotation Yrotation
                JOINT rThumb2
                {
                  OFFSET -3.37035 -0.52449 3.41376
                  CHANNELS 3 Zrotation Xrotation Yrotation
                  End Site
                  {
                    OFFSET -1.78271 -1.18214 1.43049
                  }
                }
              }
              JOINT rIndex1
              {
                OFFSET -7.75947 0.938293 5.60832
                CHANNELS 3 Zrotation Xrotation Yrotation
                JOINT rIndex2
                {
                  OFFSET -2.54057 -0.884171 1.56538
                  CHANNELS 3 Zrotation Xrotation Yrotation
                  End Site
                  {
                    OFFSET -1.62519 -0.234802 1.16502
                  }
                }
              }
              JOINT rMid1
              {
                OFFSET -8.24714 1.18213 3.41376
                CHANNELS 3 Zrotation Xrotation Yrotation
                JOINT rMid2
                {
                  OFFSET -3.10165 -0.590103 1.0647
                  CHANNELS 3 Zrotation Xrotation Yrotation
                  End Site
                  {
                    OFFSET -2.48547 -0.328903 0.83742
                  }
                }
              }
              JOINT rRing1
              {
                OFFSET -8.82822 0.546677 1.51678
                CHANNELS 3 Zrotation Xrotation Yrotation
                JOINT rRing2
                {
                  OFFSET -2.60934 -0.819778 -0.0198488
                  CHANNELS 3 Zrotation Xrotation Yrotation
                  End Site
                  {
                    OFFSET -2.33842 -0.294052 0.168128
                  }
                }
              }
              JOINT rPinky1
              {
                OFFSET -8.27202 -0.0477905 -0.4584
                CHANNELS 3 Zrotation Xrotation Yrotation
                JOINT rPinky2
                {
                  OFFSET -1.82734 -0.647385 -0.700984
                  CHANNELS 3 Zrotation Xrotation Yrotation
                  End Site
                  {
                    OFFSET -1.69225 -0.51767 -0.607171
                  }
                }
              }
            }
          }
        }
      }
      JOINT lCollar
      {
        OFFSET 2.68224 19.2634 -4.8768
        CHANNELS 3 Zrotation Xrotation Yrotation
        JOINT lShldr
        {
          OFFSET 8.77824 -1.95073 1.46304
          CHANNELS 3 Zrotation Xrotation Yrotation
          JOINT lForeArm
          {
            OFFSET 28.1742 -1.7115 0.48768
            CHANNELS 3 Zrotation Xrotation Yrotation
            JOINT lHand
            {
              OFFSET 22.5879 0.773209 7.07136
              CHANNELS 3 Zrotation Xrotation Yrotation
              JOINT lThumb1
              {
                OFFSET 1.2192 -0.487915 3.41376
                CHANNELS 3 Zrotation Xrotation Yrotation
                JOINT lThumb2
                {
                  OFFSET 3.37035 -0.52449 3.41376
                  CHANNELS 3 Zrotation Xrotation Yrotation
                  End Site
                  {
                    OFFSET 1.78271 -1.18214 1.43049
                  }
                }
              }
              JOINT lIndex1
              {
                OFFSET 7.75947 0.938293 5.60832
                CHANNELS 3 Zrotation Xrotation Yrotation
                JOINT lIndex2
                {
                  OFFSET 2.54057 -0.884171 1.56538
                  CHANNELS 3 Zrotation Xrotation Yrotation
                  End Site
                  {
                    OFFSET 1.62519 -0.234802 1.16502
                  }
                }
              }
              JOINT lMid1
              {
                OFFSET 8.24714 1.18213 3.41376
                CHANNELS 3 Zrotation Xrotation Yrotation
                JOINT lMid2
                {
                  OFFSET 3.10165 -0.590103 1.0647
                  CHANNELS 3 Zrotation Xrotation Yrotation
                  End Site
                  {
                    OFFSET 2.48547 -0.328903 0.83742
                  }
                }
              }
              JOINT lRing1
              {
                OFFSET 8.82822 0.546677 1.51678
                CHANNELS 3 Zrotation Xrotation Yrotation
                JOINT lRing2
                {
                  OFFSET 2.60934 -0.819778 -0.0198488
                  CHANNELS 3 Zrotation Xrotation Yrotation
                  End Site
                  {
                    OFFSET 2.33842 -0.294052 0.168128
                  }
                }
              }
              JOINT lPinky1
              {
                OFFSET 8.27202 -0.0477905 -0.4584
                CHANNELS 3 Zrotation Xrotation Yrotation
                JOINT lPinky2
                {
                  OFFSET 1.82734 -0.647385 -0.700984
                  CHANNELS 3 Zrotation Xrotation Yrotation
                  End Site
                  {
                    OFFSET 1.69225 -0.51767 -0.607171
                  }
                }
              }
            }
          }
        }
      }
    }
  }
  JOINT rButtock
  {
    OFFSET -8.77824 4.35084 1.2192
    CHANNELS 3 Zrotation Xrotation Yrotation
    JOINT rThigh
    {
      OFFSET 0 -1.70687 -2.19456
      CHANNELS 3 Zrotation Xrotation Yrotation
      JOINT rShin
      {
        OFFSET 0 -36.8199 0.73152
        CHANNELS 3 Zrotation Xrotation Yrotation
        JOINT rFoot
        {
          OFFSET 0.73152 -45.1104 -5.12064
          CHANNELS 3 Zrotation Xrotation Yrotation
          End Site
          {
            OFFSET -1.1221 -3.69964 12.103
          }
        }
      }
    }
  }
  JOINT lButtock
  {
    OFFSET 8.77824 4.35084 1.2192
    CHANNELS 3 Zrotation Xrotation Yrotation
    JOINT lThigh
    {
      OFFSET 0 -1.70687 -2.19456
      CHANNELS 3 Zrotation Xrotation Yrotation
      JOINT lShin
      {
        OFFSET 0 -36.8199 0.73152
        CHANNELS 3 Zrotation Xrotation Yrotation
        JOINT lFoot
        {
          OFFSET -0.73152 -45.1104 -5.12064
          CHANNELS 3 Zrotation Xrotation Yrotation
          End Site
          {
            OFFSET 1.1221 -3.69964 12.103
          }
        }
      }
    }
  }
}
MOTION
Frames:	6
Frame Time:	0.03333
0.0 0.0 0.0 0.0 0.0 0.0 0.0 0.0 0.0 0.0 0.0 0.0 0.0 0.0 0.0 0.0 0.0 0.0 0.0 0.0 0.0 0.0 0.0 0.0 0.0 0.0 0.0 0.0 0.0 0.0 0.0 0.0 0.0 0.0 0.0 0.0 0.0 0.0 0.0 0.0 0.0 0.0 0.0 0.0 0.0 0.0 0.0 0.0 0.0 0.0 0.0 0.0 0.0 0.0 0.0 0.0 0.0 0.0 0.0 0.0 0.0 0.0 0.0 0.0 0.0 0.0 0.0 0.0 0.0 0.0 0.0 0.0 0.0 0.0 0.0 0.0 0.0 0.0 0.0 0.0 0.0 0.0 0.0 0.0 0.0 0.0 0.0 0.0 0.0 0.0 0.0 0.0 0.0 0.0 0.0 0.0 0.0 0.0 0.0 0.0 0.0 0.0 0.0 0.0 0.0 0.0 0.0 0.0 0.0 0.0 0.0 0.0 0.0 0.0 0.0 0.0 0.0 0.0 0.0 0.0 0.0 0.0 0.0 0.0 0.0 0.0 0.0 0.0 0.0 0.0 0.0 0.0
0.0206 63.4653 -0.2052 -0.21886 50.195122 -1.11859 -3.027439 0.239805 91.811501 -5.390061 -13.145695 146.80904 7.220101 -19.921485 59.146466 35.481726 -23.604359 41.459176 -120.749666 -10.890615 -19.032271 -36.207594 2.840413 -8.673482 76.601422 19.005741 8.769162 10.307953 -44.836015 4.386404 114.228312 72.278912 17.323428 174.541148 -21.409147 28.806069 9.872533 2.812897 43.453627 91.766578 79.627461 126.48153 -72.353097 -27.649744 -33.890511 21.530192 35.448514 -179.93232 -24.385805 -15.523453 -82.314375 -41.227964 -45.969552 -93.208731 -52.824937 -8.533264 -95.299098 -39.138912 57.889985 22.038107 67.331945 -10.972455 -52.690858 -20.960858 63.389606 -4.258394 60.11754 27.953194 -146.1663 156.700867 -6.397175 -171.031651 -53.13799 -83.145959 148.247755 -41.57367 -50.857482 39.640865 -137.21164 -18.107489 -67.81628 -59.173682 -51.774094 176.758383 34.638057 -71.973549 -9.265392 -22.208375 66.645739 -68.540418 14.876243 -16.8757 140.996592 145.654979 -36.730333 -138.958313 -88.396379 6.420474 83.401672 -102.566866 -61.934217 -87.392452 -164.998667 26.764101 57.086859 143.112211 -10.761476 129.922968 53.560131 -0.111551 95.985334 9.732688 53.519359 -15.730529 7.105066 -2.434351 86.291066 -36.66229 -52.732525 144.517865 -42.808368 14.191472 -97.591488 6.386654 41.41335 167.569265 7.259818 -0.453585 98.98897 -76.451931 31.105862 82.705733
0.3666 60.9916 -4.2803 5.863952 24.402454 4.973264 -15.224212 18.577668 -150.35833 -0.547802 17.141089 150.829255 -8.573851 42.824467 -137.118319 34.66235 41.40759 98.740313 18.838452 -0.355071 -2.140108 47.173354 7.356733 16.752388 -7.176084 30.214332 7.49754 53.774295 -18.819644 38.90856 170.335864 11.569327 74.883725 176.477142 -7.169985 140.539403 -161.620642 -2.549684 85.227895 -160.805178 -8.022739 80.004947 -138.477069 -50.604412 150.427908 70.526996 80.431756 -11.658321 -147.132347 -38.555348 157.307972 23.390217 -84.8485 -42.47541 -111.556822 4.995271 161.645108 69.822364 20.106876 8.409764 -102.049788 -14.146675 -145.978331 -66.457931 33.423233 155.379458 154.704828 1.430975 -157.611709 -136.539353 -10.980127 176.770497 -12.152772 7.216186 -89.324085 10.887744 10.840476 3.722762 6.702492 -9.224207 8.939507 123.218955 -73.210002 -140.510055 161.133631 -12.565556 -132.877505 177.046451 3.638749 -89.509661 166.979765 18.02871 -133.729869 1.414075 -16.464323 -3.145015 142.585727 37.313806 -159.83703 163.325816 -41.30097 -178.165022 13.833287 -43.676337 11.075026 11.737018 -48.68628 21.247875 152.702681 62.109721 38.283167 166.590961 -2.580855 98.670461 84.599851 2.456477 69.553501 -7.683268 16.388157 -158.386871 -136.035739 77.784947 -43.111795 -152.083695 58.602702 -41.354185 -27.390097 59.326731 95.913207 -79.451459 22.966443 -19.082997
0.06319999999999999 60.1685 -5.6356 6.117722 27.032564 3.152029 -10.732615 24.269023 -153.902086 -0.891466 17.670811 146.938039 6.39095 22.901057 96.538134 -35.716349 13.748562 -119.694147 -31.456862 -5.13523 18.09473 -28.710353 -6.976299 26.793917 2.226499 -32.251927 1.136953 -115.852496 -33.273879 -168.725694 -16.737276 -12.837611 -118.405963 -176.284558 -29.18562 142.571571 156.118906 -49.416808 63.098408 178.027834 3.172352 79.601119 -177.02013 -33.723318 137.79058 -178.00081 20.428916 -177.128354 17.652519 41.514613 4.082242 -147.977819 65.017248 110.929021 -53.375638 56.982433 100.816864 -99.274664 -5.495993 -151.856815 -123.921795 -51.673293 -91.343493 -112.348442 24.12478 -42.944636 146.997934 -8.378886 -173.074549 -139.990062 16.767877 151.937049 115.24571 -32.481274 -88.692842 -169.509242 -52.675756 -143.996836 -27.145729 -29.267385 12.296322 135.775554 4.957262 -88.112254 40.297789 65.798863 -2.892055 -165.595501 -34.391159 22.511885 32.034955 31.610057 -18.271328 54.782358 64.023275 -59.376615 165.576457 -41.189669 -145.374546 141.846091 30.233419 -128.243802 125.67133 18.870698 -156.895728 -173.984053 -33.950191 -169.044439 -25.527516 25.975575 -63.577813 90.529368 -40.32007 -179.780323 82.938147 -13.890473 157.721302 159.977338 2.587958 -102.285922 126.419729 76.526114 45.437367 -99.906096 62.890837 -1.802551 53.914322 26.368552 11.18243 140.439771 -59.528995 41.999938
-0.0837 59.8241 -4.8466000000000005 4.20702 26.106654 2.661941 -4.406953 20.291065 -174.995784 -4.115461 11.63739 160.623386 -28.112662 27.124814 -73.959493 46.620201 7.441084 47.308857 -12.833554 -1.565463 13.852609 -50.397466 -10.953858 23.035257 -29.465882 39.520617 27.359517 76.233502 -28.013946 47.526901 178.803992 9.773266 58.129483 174.643226 -6.75511 136.824967 78.078197 -47.344836 12.303494 77.763981 -35.19559 49.128211 -78.790867 50.96066 37.89921 17.269308 -35.969909 18.357399 -153.712356 -37.51177 154.301365 -138.096036 -65.233981 130.303037 -121.932311 19.613513 162.884458 -0.410721 71.81226 35.594725 -120.536157 -75.340755 -77.817926 50.396935 0.977322 -79.616846 -9.896986 9.590085 13.179112 -61.114022 0.365973 -44.495847 18.575356 13.792902 -100.841254 6.605432 -19.834507 2.550634 -143.112473 -55.144366 -77.190888 158.835186 -30.169163 -102.979012 11.131011 11.101141 -0.214647 -178.330885 28.855883 12.537545 155.304282 -4.529693 -145.466427 142.356007 37.433004 -149.50884 94.847652 13.699658 -116.372684 -71.400309 -17.850719 -18.88389 -33.2053 -71.349724 -54.626546 -143.254049 -9.064699 67.71729 85.832155 -1.234155 46.015736 -110.241445 -23.817166 -74.875088 -80.853062 20.76145 -29.360935 -27.889159 75.482844 119.290675 -34.882732 22.611923 -69.695479 44.863494 43.776916 -46.89236 -65.711465 -25.78851 -126.641507 170.368305 51.271946 97.036237
0.1972 60.52269999999999 -3.1991 5.732459 22.50913 3.233792 -10.113405 18.898278 -168.101407 -8.257543 11.802426 152.023393 -35.526004 26.21846 -95.691455 44.883732 35.781037 70.292721 -23.13121 -6.358314 30.370253 -35.459811 -17.510068 51.439509 -129.226037 46.278471 123.591959 -89.20995 37.114957 74.853058 -24.086119 -37.164673 -136.730067 151.084027 -31.43545 133.427528 -176.242827 -34.02552 99.83279 -3.749791 -11.533183 10.923435 -132.938299 66.515642 120.660242 -151.403519 -78.039135 165.625065 -148.003095 -43.937282 177.497539 36.625899 50.135072 27.22099 -97.075448 -17.223253 -147.838509 69.976894 -22.061984 14.895128 141.83322 46.146717 -120.605301 -71.434953 37.044928 31.321215 75.48347 -73.15264 102.040308 -64.304163 17.427746 40.678143 -153.924069 -41.021214 -24.373741 164.841497 21.445892 -135.820665 177.332723 -28.123517 -96.489961 107.55151 18.160274 -65.824745 -25.757581 -43.928625 17.840636 -1.54194 6.214716 -54.53143 105.493746 60.410074 -101.572866 171.189119 -34.09831 -157.781167 78.285298 17.816696 -121.665613 75.858025 -16.51931 172.516125 154.777542 -40.594152 159.240563 -136.678203 44.175771 172.696479 104.15837 24.382272 48.424716 -143.4716 -13.67793 38.930172 78.478589 39.099287 117.451521 69.987164 -11.070925 -176.899717 79.418449 35.971545 82.650778 -44.937785 57.186206 -54.033558 18.19844 65.017431 -147.145226 -113.509575 49.959483 -164.08643
